# xmcd CD database file
#
# Track frame offsets:
#	150
#	13003
#	25964
#	40874
#	55968
#	69968
#	82686
#	99187
#	111107
#	124298
#	139966
#	150521
#
# Disc length: 2199 seconds
#
# Revision: 0
# Processed by: cddbd v1.5.1PL0 Copyright (c) Steve Scherf et al.
# Submitted via: CDex 1.50Beta7
#
DISCID=9008950c
DTITLE=Tiao Carreiro e Pardinho - Disco 02
DYEAR=1900
DGENRE=Country
TTITLE0=Raizes do amor
TTITLE1=Novo amor
TTITLE2=Felicidade
TTITLE3=Estrela de ouro
TTITLE4=Oi paixao
TTITLE5=Arrependida
TTITLE6=A mao do tempo
TTITLE7=Adeus meu bem, adeus
TTITLE8=Nossas vidas
TTITLE9=Meu passado
TTITLE10=A saudade continua
TTITLE11=Alma de boemio
EXTD=
EXTT0=
EXTT1=
EXTT2=
EXTT3=
EXTT4=
EXTT5=
EXTT6=
EXTT7=
EXTT8=
EXTT9=
EXTT10=
EXTT11=
PLAYORDER=
